<?xml version="1.0" encoding="UTF-8" standalone="no"?>
<!-- Created with Inkscape (http://www.inkscape.org/) -->

<svg
   xmlns:dc="http://purl.org/dc/elements/1.1/"
   xmlns:cc="http://creativecommons.org/ns#"
   xmlns:rdf="http://www.w3.org/1999/02/22-rdf-syntax-ns#"
   xmlns:svg="http://www.w3.org/2000/svg"
   xmlns="http://www.w3.org/2000/svg"
   xmlns:sodipodi="http://sodipodi.sourceforge.net/DTD/sodipodi-0.dtd"
   xmlns:inkscape="http://www.inkscape.org/namespaces/inkscape"
   height="30"
   width="77"
   viewBox="0 0 77.000001 30"
   id="svg2"
   version="1.1"
   inkscape:version="0.91 r13725"
   sodipodi:docname="drawing.svg">
  <defs
     id="defs8" />
  <sodipodi:namedview
     pagecolor="#ffffff"
     bordercolor="#666666"
     borderopacity="1"
     objecttolerance="10"
     gridtolerance="10"
     guidetolerance="10"
     inkscape:pageopacity="0"
     inkscape:pageshadow="2"
     inkscape:window-width="1366"
     inkscape:window-height="708"
     id="namedview6"
     showgrid="false"
     inkscape:zoom="11.313709"
     inkscape:cx="37.909045"
     inkscape:cy="7.7651512"
     inkscape:window-x="0"
     inkscape:window-y="26"
     inkscape:window-maximized="1"
     inkscape:current-layer="svg2"
     showguides="true"
     inkscape:guide-bbox="true"
     units="px" />
  <metadata
     id="metadata4">
    <rdf:RDF>
      <cc:Work
         rdf:about="">
        <dc:format>image/svg+xml</dc:format>
        <dc:type
           rdf:resource="http://purl.org/dc/dcmitype/StillImage" />
        <dc:title></dc:title>
      </cc:Work>
    </rdf:RDF>
  </metadata>
  <path
     style="font-style:normal;font-variant:normal;font-weight:normal;font-stretch:normal;font-size:medium;line-height:125%;font-family:monospace;-inkscape-font-specification:monospace;letter-spacing:0px;word-spacing:0px;fill:#ffffff;fill-opacity:1;stroke:none;stroke-width:1px;stroke-linecap:butt;stroke-linejoin:miter;stroke-opacity:1"
     d="m 0.0273438,0.22429897 0.03125,3.55890003 3.9453124,0.027 4.5703128,0 c 1.835937,0 3.261719,0.4817 4.277344,1.4453 1.015625,0.9505 1.492187,1.948 1.492187,3.6797 0,1.7318 -0.514323,2.5795 -1.542969,3.543 -1.015624,0.9635 -2.434896,1.4453 -4.257812,1.4453 l -4.0841769,0 0,-4.1797004 -4.4314483,0 0,19.6406004 4.4314483,0 0,-11.7187 4.0841769,0 c 3.268228,0 5.735677,-0.7357 7.402344,-2.207 1.679687,-1.4714 2.519531,-3.6459 2.519531,-6.5235 0,-2.8515 -0.839844,-5.013 -2.519531,-6.4844 C 14.265625,0.96639897 11.798177,0.22429897 8.542969,0.22429897 Z"
     id="path3168"
     inkscape:connector-curvature="0"
     sodipodi:nodetypes="cccscscsccccccscscsc" />
  <path
     style="font-style:normal;font-variant:normal;font-weight:normal;font-stretch:normal;font-size:medium;line-height:125%;font-family:monospace;-inkscape-font-specification:monospace;letter-spacing:0px;word-spacing:0px;fill:#ffffff;fill-opacity:1;stroke:none;stroke-width:1px;stroke-linecap:butt;stroke-linejoin:miter;stroke-opacity:1"
     d="m 19.589844,8.224299 3.945312,4.0274 13.359375,0 0,-4.0274 z m 3.901118,12.1682 12.773438,0 0.04419,-4.0274 -12.773438,0 z m -3.901118,8.9919 17.675781,0 -0.04419,-3.939 -13.730469,0 z"
     id="path3170"
     inkscape:connector-curvature="0"
     sodipodi:nodetypes="ccccccccccccccc" />
  <path
     inkscape:connector-curvature="0"
     id="path3172"
     style="font-style:normal;font-variant:normal;font-weight:normal;font-stretch:normal;font-size:medium;line-height:125%;font-family:monospace;-inkscape-font-specification:monospace;letter-spacing:0px;word-spacing:0px;fill:#ffffff;fill-opacity:1;stroke:none;stroke-width:1px;stroke-linecap:butt;stroke-linejoin:miter;stroke-opacity:1"
     d="m 56.863281,12.584499 -11.244246,0.1025 -0.0058,16.7606 -4.238281,-0.062 0,-21.875 4.238281,0.062 0.0014,0.8482 11.248644,-0.072 z"
     sodipodi:nodetypes="ccccccccc" />
  <path
     inkscape:connector-curvature="0"
     id="path3174"
     style="font-style:normal;font-variant:normal;font-weight:normal;font-stretch:normal;font-size:medium;line-height:125%;font-family:monospace;-inkscape-font-specification:monospace;letter-spacing:0px;word-spacing:0px;fill:#ffffff;fill-opacity:1;stroke:none;stroke-width:1px;stroke-linecap:butt;stroke-linejoin:miter;stroke-opacity:1"
     d="m 76.894531,8.803099 0,20.5822 -4.050781,0 0.0586,-16.7227 -8.586886,0.023 -0.04593,16.6995 -4.09375,0 0,-21.875 4.09375,0 0,1.2812 z"
     sodipodi:nodetypes="ccccccccccc" />
</svg>
